#N canvas 457 255 948 536 10;
#X obj 90 93 blob;
#X msg 197 119 [;
#X msg 19 460 ];
#X obj 44 414 list prepend;
#X obj 44 435 list trim;
#X obj 155 256 + 1;
#X obj 125 256 i;
#X msg 154 301 0;
#X obj 154 278 select 98;
#X obj 175 465 packOSC;
#X obj 90 69 pack~;
#X obj 182 145 samplerate~;
#X obj 182 189 list;
#X obj 90 119 t b l b b b b;
#X obj 125 365 list;
#X text 127 95 data outlet \, resolution outlet \, blocksize outlet
;
#X obj 90 48 inlet~;
#X obj 140 48 inlet;
#X obj 175 487 outlet;
#X msg 157 230 sendtyped /AOO/drain/\$1/format iiis \$2 \$3 1 audio/pcm
;
#X obj 157 210 list;
#X obj 182 167 list prepend \$1;
#X text 538 227 \$1: drain number \, \$2: samplingrate \, \$3: blocksize
\, 1: overlapping factor \, audio/pcm: MIME type;
#X obj 206 302 loadbang;
#X obj 125 344 list prepend;
#X obj 206 324 list \$1 \$2 \$3;
#X msg 125 391 sendtyped /AOO/drain/\$1/channel/\$2 iiiib \$3 \$4 1
\$5;
#X text 491 381 \$1 drain number \, \$2 channel number \, \$3 "stream"
Identification Number \, \$4: Sequence Number \, 1: resampling factor
\, \$5: resolution;
#X obj 202 47 switch~;
#X obj 202 26 inlet;
#X text 258 48 turn on/off subpatch;
#X connect 0 0 13 0;
#X connect 0 1 14 1;
#X connect 0 2 12 1;
#X connect 1 0 9 0;
#X connect 2 0 9 0;
#X connect 3 0 4 0;
#X connect 4 0 9 0;
#X connect 5 0 6 1;
#X connect 6 0 5 0;
#X connect 6 0 8 0;
#X connect 6 0 24 0;
#X connect 7 0 6 1;
#X connect 8 0 7 0;
#X connect 9 0 18 0;
#X connect 10 0 0 0;
#X connect 11 0 21 0;
#X connect 12 0 20 1;
#X connect 13 0 2 0;
#X connect 13 1 3 0;
#X connect 13 2 6 0;
#X connect 13 3 20 0;
#X connect 13 4 11 0;
#X connect 13 5 1 0;
#X connect 14 0 26 0;
#X connect 16 0 10 0;
#X connect 17 0 0 0;
#X connect 19 0 9 0;
#X connect 20 0 19 0;
#X connect 21 0 12 0;
#X connect 23 0 25 0;
#X connect 24 0 14 0;
#X connect 25 0 24 1;
#X connect 26 0 3 1;
#X connect 29 0 28 0;
