#N canvas 601 200 543 221 10;
#X msg 74 135 disconnect;
#X obj 67 156 udpsend;
#X obj 67 181 tgl 15 0 empty empty empty 17 7 0 10 -262144 -1 -1 1
1;
#X obj 67 94 loadbang;
#X msg 67 114 connect 127.0.0.1 12345;
#X obj 178 46 tgl 15 0 empty empty empty 17 7 0 10 -262144 -1 -1 1
1;
#X text 180 64 90: drain number \, 1: channel number \, 3: "stream"
identification number;
#X obj 21 45 osc~ 300;
#X obj 178 25 loadbang;
#X msg 95 25 format f;
#X msg 95 46 format i 5;
#X obj 20 69 AOOpackchannel 90 1 35;
#X text 195 45 turn on/off subpatch;
#X text 65 7 format of the blob;
#X text 24 27 source;
#X connect 0 0 1 0;
#X connect 1 0 2 0;
#X connect 3 0 4 0;
#X connect 4 0 1 0;
#X connect 5 0 11 2;
#X connect 7 0 11 0;
#X connect 8 0 5 0;
#X connect 9 0 11 1;
#X connect 10 0 11 1;
#X connect 11 0 1 0;
