#N canvas 792 423 613 361 10;
#X obj 142 108 routeOSC /channel;
#X obj 142 42 routeOSC /AOO;
#X obj 142 63 routeOSC /drain;
#X obj 128 235 unblob;
#X obj 128 287 funpack~;
#X obj 293 180 list split 1;
#X obj 202 180 list split 2;
#X obj 202 204 list split 1;
#X obj 142 -1 unpackOSC;
#X obj 142 20 pipelist;
#X text 190 284 Data inlet \, Sequence Number inlet \, "stream" Identification
Number inlet \, Mode inlet (0 = arithmetic mixing \, 1 = summation)
;
#X obj 269 108 routeOSC /format;
#X obj 269 129 list split 1;
#X obj 269 150 list split 1;
#X obj 15 180 list split 4;
#X obj 107 180 list split 4;
#X obj 107 203 list split 3;
#X obj 142 152 t l l l l;
#X text 181 236 Data inlet \, resolution inlet \, blocksize inlet;
#X obj 127 308 outlet~;
#X obj 142 85 routeOSC /\$1;
#X text 35 130 channel number;
#X text 232 83 drain number;
#X obj 142 129 routeOSC /\$2;
#X obj 181 266 inlet;
#X obj 142 -22 inlet;
#X connect 0 0 23 0;
#X connect 1 0 2 0;
#X connect 2 0 20 0;
#X connect 3 0 4 0;
#X connect 4 0 19 0;
#X connect 5 0 4 2;
#X connect 6 0 7 0;
#X connect 7 1 4 1;
#X connect 8 0 9 0;
#X connect 8 1 9 1;
#X connect 9 0 1 0;
#X connect 11 0 12 0;
#X connect 12 1 13 0;
#X connect 13 0 3 2;
#X connect 14 1 3 0;
#X connect 15 0 16 0;
#X connect 16 1 3 1;
#X connect 17 0 14 0;
#X connect 17 1 15 0;
#X connect 17 2 6 0;
#X connect 17 3 5 0;
#X connect 20 0 0 0;
#X connect 20 0 11 0;
#X connect 23 0 17 0;
#X connect 24 0 4 3;
#X connect 25 0 8 0;
