#N canvas 0 0 1415 794 10;
#X obj 27 182 blob;
#X obj 15 14 unblob;
#X text 23 158 correspondent object;
#X obj 26 248 pack~;
#X obj 26 278 packOSC;
#X text 24 225 use in combination with:;
#X text 95 249 zexy library of johannes zmoelnig;
#X text 122 311 osc library of martin peach;
#X obj 26 299 unpackOSC;
#X obj 26 321 pipelist;
#X obj 26 343 routeOSC;
#X obj 26 411 funpack~;
#X obj 26 372 unpack~;
#X text 97 371 zexy library of johannes zmoelnig;
#X text 96 413 15.12.2009 Wolfgang Jaeger;
#X text 24 455 also recommended:;
#X obj 26 479 udpsend;
#X obj 25 503 udpreceive;
#X text 120 490 net library of martin peach;
#X text 65 14 -- unpacks audio data according to the resolution adjusted
at the object [blob];
#X obj 595 479 routeOSC /channel;
#X obj 595 501 routeOSC /1;
#X obj 595 413 routeOSC /AOO;
#X obj 595 434 routeOSC /drain;
#X obj 581 658 funpack~;
#X obj 746 551 list split 1;
#X obj 655 551 list split 2;
#X obj 655 575 list split 1;
#X obj 595 370 unpackOSC;
#X obj 595 391 pipelist;
#X obj 568 687 dac~;
#X obj 595 456 routeOSC /90;
#X text 514 340 here udp/tcp interface possible;
#X obj 573 605 cnv 15 60 20 empty empty empty 20 12 0 14 -4034 -66577
0;
#X obj 510 66 blob;
#X msg 850 25 format float;
#X msg 908 49 format integer 1;
#X msg 955 148 format integer 32;
#X msg 1077 27 format f;
#X msg 1114 48 format i 1;
#X msg 1157 147 format i 32;
#X msg 741 123 [;
#X msg 439 309 ];
#X obj 464 263 list prepend;
#X obj 464 284 list trim;
#X obj 575 138 + 1;
#X obj 545 138 i;
#X msg 574 183 0;
#X obj 574 160 select 98;
#X obj 595 314 packOSC;
#X obj 510 42 pack~;
#X text 946 26 default;
#X msg 916 73 format integer 2;
#X msg 945 124 format integer 31;
#X text 979 97 ...;
#X msg 1128 72 format i 2;
#X text 1158 97 ...;
#X msg 1147 123 format i 31;
#X text 1079 7 short form;
#X text 1152 28 default;
#X obj 510 19 osc~ 400;
#X obj 726 149 samplerate~;
#X msg 545 240 sendtyped /AOO/drain/90/channel/1 iiiib 77 \$1 1 \$2
;
#X obj 726 169 list;
#X obj 510 92 t b l b b b b;
#X obj 701 190 list;
#X obj 545 219 list;
#X msg 701 210 sendtyped /AOO/drain/90/format iiis \$1 \$2 1 audio/pcm
;
#X obj 634 639 tgl 15 0 empty empty empty 17 7 0 10 -262144 -1 -1 0
1;
#X text 643 655 Data inlet \, Sequence Number inlet \, "stream" Identification
Number inlet \, Mode inlet (0 = arithmetic mixing \, 1 = summation)
;
#X text 1085 205 \$1: samplingrate \, \$2: blocksize \, 1: overlapping
factor \, audio/pcm: MIME type;
#X text 907 238 77: "stream" Identification Number \, \$1: Sequence
Number \, 1: resampling factor \, \$2: resolution;
#X obj 722 479 routeOSC /format;
#X obj 722 500 list split 1;
#X obj 722 521 list split 1;
#X obj 468 551 list split 4;
#X obj 560 551 list split 4;
#X obj 560 574 list split 3;
#X obj 595 523 t l l l l;
#X text 634 607 Data inlet \, resolution inlet \, blocksize inlet;
#X text 548 70 data outlet \, resolution outlet \, blocksize outlet
;
#X text 73 183 24.01.2010 Wolfgang Jaeger;
#X text 18 72 left inlet: data;
#X text 18 87 inlet in the middle: resolution;
#X text 18 103 right inlet: blocksize;
#X obj 581 606 unblob;
#X connect 20 0 21 0;
#X connect 21 0 78 0;
#X connect 22 0 23 0;
#X connect 23 0 31 0;
#X connect 24 0 30 0;
#X connect 24 0 30 1;
#X connect 25 0 24 2;
#X connect 26 0 27 0;
#X connect 27 1 24 1;
#X connect 28 0 29 0;
#X connect 28 1 29 1;
#X connect 29 0 22 0;
#X connect 31 0 20 0;
#X connect 31 0 72 0;
#X connect 34 0 64 0;
#X connect 34 1 66 1;
#X connect 34 2 63 1;
#X connect 35 0 34 0;
#X connect 36 0 34 0;
#X connect 37 0 34 0;
#X connect 38 0 34 0;
#X connect 39 0 34 0;
#X connect 40 0 34 0;
#X connect 41 0 49 0;
#X connect 42 0 49 0;
#X connect 43 0 44 0;
#X connect 44 0 49 0;
#X connect 45 0 46 1;
#X connect 46 0 45 0;
#X connect 46 0 48 0;
#X connect 46 0 66 0;
#X connect 47 0 46 1;
#X connect 48 0 47 0;
#X connect 49 0 28 0;
#X connect 50 0 34 0;
#X connect 52 0 34 0;
#X connect 53 0 34 0;
#X connect 55 0 34 0;
#X connect 57 0 34 0;
#X connect 60 0 50 0;
#X connect 61 0 63 0;
#X connect 62 0 43 1;
#X connect 63 0 65 1;
#X connect 64 0 42 0;
#X connect 64 1 43 0;
#X connect 64 2 46 0;
#X connect 64 3 65 0;
#X connect 64 4 61 0;
#X connect 64 5 41 0;
#X connect 65 0 67 0;
#X connect 66 0 62 0;
#X connect 67 0 49 0;
#X connect 68 0 24 3;
#X connect 72 0 73 0;
#X connect 73 1 74 0;
#X connect 74 0 85 2;
#X connect 75 1 85 0;
#X connect 76 0 77 0;
#X connect 77 1 85 1;
#X connect 78 0 75 0;
#X connect 78 1 76 0;
#X connect 78 2 26 0;
#X connect 78 3 25 0;
#X connect 85 0 24 0;
