#N canvas 946 24 446 99 12;
#N canvas 787 202 756 551 sub 1;
#X obj 127 164 nbx 5 14 -1e+037 1e+037 0 0 empty empty empty 0 -8 0
10 -262144 -1 -1 500 256;
#X obj 327 250 line~;
#X msg 327 216 \$1 50;
#X obj 66 285 *~;
#X obj 137 286 *~;
#X obj 327 25 vsl 15 128 0 1 0 0 empty empty empty 0 -9 0 10 -262144
-1 -1 0 1;
#X obj 327 185 t f f;
#X obj 373 235 - 100;
#X floatatom 373 259 5 0 0 0 - - -;
#X obj 373 211 rmstodb;
#X obj 327 161 pow 2;
#X msg 123 191 bufsize \$1;
#X obj 43 66 loadbang;
#X msg 43 90 \; pd dsp 1;
#X obj 57 342 outlet~;
#X obj 137 344 outlet~;
#X obj 70 464 block~;
#X msg 70 438 set \$1;
#X msg 71 408 64;
#X msg 105 409 128;
#X msg 141 410 256;
#X msg 41 190 listen \$1;
#X msg 42 163 9999;
#X msg 80 164 0;
#X obj 26 142 nbx 5 14 -1e+037 1e+037 0 0 empty empty empty 0 -8 0
10 -262144 -1 -1 0 256;
#X obj 190 406 sigmund~;
#X floatatom 190 430 10 0 0 0 - - -;
#X obj 126 97 loadbang;
#X obj 191 453 moses 0;
#X obj 191 477 bng 15 250 50 0 empty empty empty 17 7 0 10 -262144
-1 -1;
#X obj 191 499 f;
#X obj 222 502 + 1;
#X floatatom 222 529 8 0 0 0 - - -;
#X msg 214 477 -1;
#X obj 249 478 bng 15 250 50 0 empty empty empty 17 7 0 10 -262144
-1 -1;
#X msg 207 190 timefilter \$1;
#X obj 208 163 nbx 8 14 -1e+037 1e+037 0 0 empty empty empty 0 -8 0
10 -262144 -1 -1 0 256;
#X obj 65 248 aoo_receive~ 1 2 9999;
#X obj 137 313 clip~ -1 1;
#X obj 56 313 clip~ -1 1;
#X msg 126 121 500;
#X msg 162 122 100;
#X msg 193 123 20;
#X obj 291 314 aoo_receive~ 2 2 9999;
#X obj 363 352 env~;
#X floatatom 363 376 5 0 0 0 - - -;
#X obj 292 351 env~;
#X floatatom 292 375 5 0 0 0 - - -;
#X obj 435 341 print B;
#X obj 211 336 print A;
#X msg 65 219 list_sources;
#X msg 291 287 list_sources;
#X connect 0 0 11 0;
#X connect 1 0 3 1;
#X connect 1 0 4 1;
#X connect 2 0 1 0;
#X connect 3 0 39 0;
#X connect 4 0 38 0;
#X connect 5 0 10 0;
#X connect 6 0 2 0;
#X connect 6 1 9 0;
#X connect 7 0 8 0;
#X connect 9 0 7 0;
#X connect 10 0 6 0;
#X connect 11 0 37 0;
#X connect 12 0 13 0;
#X connect 17 0 16 0;
#X connect 18 0 17 0;
#X connect 19 0 17 0;
#X connect 20 0 17 0;
#X connect 21 0 37 0;
#X connect 22 0 21 0;
#X connect 23 0 21 0;
#X connect 24 0 21 0;
#X connect 25 0 26 0;
#X connect 26 0 28 0;
#X connect 27 0 40 0;
#X connect 28 0 29 0;
#X connect 29 0 30 0;
#X connect 30 0 31 0;
#X connect 31 0 30 1;
#X connect 31 0 32 0;
#X connect 33 0 30 0;
#X connect 34 0 33 0;
#X connect 35 0 37 0;
#X connect 36 0 35 0;
#X connect 37 0 25 0;
#X connect 37 0 3 0;
#X connect 37 1 4 0;
#X connect 37 2 49 0;
#X connect 38 0 15 0;
#X connect 39 0 14 0;
#X connect 40 0 0 0;
#X connect 41 0 0 0;
#X connect 42 0 0 0;
#X connect 43 0 46 0;
#X connect 43 1 44 0;
#X connect 43 2 48 0;
#X connect 44 0 45 0;
#X connect 46 0 47 0;
#X connect 50 0 37 0;
#X connect 51 0 43 0;
#X restore 34 46 pd sub;
#X obj 34 70 dac~;
#X connect 0 0 1 0;
#X connect 0 1 1 1;
