#N canvas 177 97 913 608 12;
#X declare -lib aoo;
#X obj 108 274 osc~ 440;
#X msg 97 218 set \$1;
#X msg 112 193 symbol *;
#X obj 109 171 nbx 5 14 -1e+037 1e+037 0 0 empty empty empty 0 -8 0
10 -262144 -1 -1 0 256;
#X msg 38 244 clear;
#X obj 186 270 osc~ 600;
#X obj 108 252 nbx 5 14 -1e+037 1e+037 0 0 empty empty empty 0 -8 0
10 -262144 -1 -1 0 256;
#X obj 470 505 loadbang;
#X msg 470 529 \; pd dsp 1;
#X msg 255 298 channel \$1;
#X obj 255 278 nbx 5 14 -1e+037 1e+037 0 0 empty empty empty 0 -8 0
10 -262144 -1 -1 0 256;
#X obj 81 514 block~;
#X msg 81 485 set \$1;
#X msg 84 416 64;
#X msg 119 417 128;
#X msg 155 418 256;
#X msg 253 347 packetsize \$1;
#X obj 253 327 nbx 5 14 -1e+037 1e+037 0 0 empty empty empty 0 -8 0
10 -262144 -1 -1 0 256;
#X obj 94 311 aoo_send~ 1 2;
#X msg 363 129 2;
#X msg 396 128 3;
#X msg 433 127 4;
#X msg 467 128 8;
#X msg 106 361 timefilter \$1;
#X obj 107 341 nbx 8 14 -1e+037 1e+037 0 0 empty empty empty 0 -8 0
10 -262144 -1 -1 0 256;
#X obj 82 457 t f;
#X obj 292 496 nbx 5 14 -1e+037 1e+037 0 0 empty empty empty 0 -8 0
10 -262144 -1 -1 0 256;
#X obj 292 518 osc~ 300;
#X obj 380 520 osc~ 800;
#X msg 271 431 disconnect \, connect localhost 9999;
#X msg 281 464 set 1;
#X msg 331 466 clear;
#X obj 362 175 t b f;
#X msg 304 118 44100;
#X msg 311 142 48000;
#X msg 295 95 22050;
#X obj 295 173 t b f;
#X msg 245 97 64;
#X msg 251 122 128;
#X msg 258 146 256;
#X obj 241 204 pack 64 44100 4;
#X msg 241 234 format pcm \$1 \$2 \$3;
#X obj 273 558 aoo_send~ 2 2;
#X msg 466 348 format opus \$1;
#X msg 467 165 64;
#X msg 473 190 128;
#X msg 479 213 256;
#X msg 490 241 512;
#X msg 496 267 1024;
#X msg 503 296 2048;
#X msg 512 318 4096;
#X msg 40 35 add localhost 9999 1;
#X msg 52 66 remove localhost 9999 1;
#X msg 64 101 add localhost 9999 2;
#X msg 75 131 remove localhost 9999 2;
#X obj 560 546 declare -lib aoo;
#X msg 14 189 start;
#X msg 20 218 stop;
#X connect 0 0 18 0;
#X connect 1 0 18 0;
#X connect 2 0 1 0;
#X connect 3 0 1 0;
#X connect 4 0 18 0;
#X connect 5 0 18 1;
#X connect 6 0 0 0;
#X connect 7 0 8 0;
#X connect 9 0 18 0;
#X connect 10 0 9 0;
#X connect 12 0 11 0;
#X connect 13 0 25 0;
#X connect 14 0 25 0;
#X connect 15 0 25 0;
#X connect 16 0 18 0;
#X connect 17 0 16 0;
#X connect 19 0 32 0;
#X connect 20 0 32 0;
#X connect 21 0 32 0;
#X connect 22 0 32 0;
#X connect 23 0 18 0;
#X connect 24 0 23 0;
#X connect 25 0 12 0;
#X connect 26 0 27 0;
#X connect 27 0 42 0;
#X connect 28 0 42 1;
#X connect 29 0 42 0;
#X connect 30 0 42 0;
#X connect 31 0 42 0;
#X connect 32 0 40 0;
#X connect 32 1 40 2;
#X connect 33 0 36 0;
#X connect 34 0 36 0;
#X connect 35 0 36 0;
#X connect 36 0 40 0;
#X connect 36 1 40 1;
#X connect 37 0 40 0;
#X connect 38 0 40 0;
#X connect 39 0 40 0;
#X connect 40 0 41 0;
#X connect 41 0 18 0;
#X connect 43 0 18 0;
#X connect 44 0 43 0;
#X connect 45 0 43 0;
#X connect 46 0 43 0;
#X connect 47 0 43 0;
#X connect 48 0 43 0;
#X connect 49 0 43 0;
#X connect 50 0 43 0;
#X connect 51 0 18 0;
#X connect 52 0 18 0;
#X connect 53 0 18 0;
#X connect 54 0 18 0;
#X connect 56 0 18 0;
#X connect 57 0 18 0;
