#N canvas 104 387 872 345 12;
#X declare -lib aoo;
#X obj 188 264 aoo_client 9998;
#X msg 197 232 disconnect;
#X obj 40 134 aoo_server 8000;
#X msg 188 21 connect localhost 8000 christof foo;
#X obj 188 291 tgl 15 0 empty empty empty 17 7 0 10 -262144 -1 -1 0
1;
#X floatatom 40 158 5 0 0 0 - - -;
#X msg 198 60 connect 193.170.129.101 8002 christof foo;
#X msg 209 102 group_join test bar;
#X msg 218 139 group_leave test;
#X msg 232 170 group_join test2 bar;
#X msg 239 202 group_leave test2;
#X msg 524 227 disconnect;
#X obj 515 286 tgl 15 0 empty empty empty 17 7 0 10 -262144 -1 -1 0
1;
#X msg 536 97 group_join test bar;
#X msg 545 134 group_leave test;
#X msg 559 165 group_join test2 bar;
#X msg 566 197 group_leave test2;
#X obj 515 259 aoo_client 10000;
#X msg 525 55 connect 193.170.129.101 8002 winnie foo;
#X msg 515 16 connect localhost 8000 winnie foo;
#X obj 33 39 declare -lib aoo;
#X connect 0 0 4 0;
#X connect 1 0 0 0;
#X connect 2 0 5 0;
#X connect 3 0 0 0;
#X connect 6 0 0 0;
#X connect 7 0 0 0;
#X connect 8 0 0 0;
#X connect 9 0 0 0;
#X connect 10 0 0 0;
#X connect 11 0 17 0;
#X connect 13 0 17 0;
#X connect 14 0 17 0;
#X connect 15 0 17 0;
#X connect 16 0 17 0;
#X connect 17 0 12 0;
#X connect 18 0 17 0;
#X connect 19 0 17 0;
