#N canvas 283 50 703 710 12;
#X obj 168 119 osc~ 440;
#X msg 88 135 set \$1;
#X obj 91 63 hradio 15 1 0 8 empty empty empty 0 -8 0 10 -262144 -1
-1 1;
#X msg 103 110 symbol *;
#X obj 100 88 nbx 5 14 -1e+037 1e+037 0 0 empty empty empty 0 -8 0
10 -262144 -1 -1 0 256;
#X msg 39 139 clear;
#X obj 236 119 osc~ 600;
#X obj 196 84 nbx 5 14 -1e+037 1e+037 0 0 empty empty empty 0 -8 0
10 -262144 -1 -1 0 256;
#X obj 301 71 loadbang;
#X msg 301 95 \; pd dsp 1;
#X obj 151 428 loadbang;
#X obj 100 166 r \$0-back;
#X obj 89 447 spigot;
#X obj 128 411 tgl 15 0 empty empty empty 17 7 0 10 -262144 -1 -1 0
1;
#X msg 251 173 channel \$1;
#X obj 251 153 nbx 5 14 -1e+037 1e+037 0 0 empty empty empty 0 -8 0
10 -262144 -1 -1 0 256;
#X obj 245 547 s \$0-back;
#X obj 254 526 bng 15 250 50 0 empty empty empty 17 7 0 10 -262144
-1 -1;
#X msg 152 456 disconnect \, connect localhost 9999;
#X obj 89 489 iemnet/udpsend;
#X obj 245 498 iemnet/udpreceive 9998;
#X obj 65 656 block~;
#X msg 65 627 set \$1;
#X msg 68 546 64;
#X msg 103 547 128;
#X msg 139 548 256;
#X obj 88 200 aoo_pack~ 1 2;
#X obj 66 587 t f f;
#X obj 126 618 s \$0-blocksize;
#X msg 249 222 packetsize \$1;
#X obj 249 202 nbx 5 14 -1e+037 1e+037 0 0 empty empty empty 0 -8 0
10 -262144 -1 -1 0 256;
#X obj 88 386 pipelist;
#X obj 138 356 random;
#X obj 178 333 nbx 5 14 0 100 0 0 empty empty empty 0 -8 0 10 -262144
-1 -1 0 256;
#X floatatom 158 384 5 0 0 0 - - -;
#X text 194 357 simulate jitter + reordering;
#X obj 87 349 spigot;
#X obj 87 236 t a b b;
#X obj 111 308 >= 0;
#X obj 204 280 hsl 128 15 0 100 0 0 empty empty empty -2 -8 0 10 -262144
-1 -1 0 1;
#X floatatom 201 306 5 0 0 0 - - -;
#X obj 110 282 random 1000;
#X obj 151 307 * 10;
#X text 201 255 simulate packet loss (%);
#X connect 0 0 26 0;
#X connect 1 0 26 0;
#X connect 2 0 1 0;
#X connect 3 0 1 0;
#X connect 4 0 1 0;
#X connect 5 0 26 0;
#X connect 6 0 26 1;
#X connect 7 0 0 0;
#X connect 8 0 9 0;
#X connect 10 0 18 0;
#X connect 11 0 26 0;
#X connect 12 0 19 0;
#X connect 13 0 12 1;
#X connect 14 0 26 0;
#X connect 15 0 14 0;
#X connect 18 0 19 0;
#X connect 20 0 17 0;
#X connect 20 0 16 0;
#X connect 22 0 21 0;
#X connect 23 0 27 0;
#X connect 24 0 27 0;
#X connect 25 0 27 0;
#X connect 26 0 37 0;
#X connect 27 0 22 0;
#X connect 27 1 28 0;
#X connect 29 0 26 0;
#X connect 30 0 29 0;
#X connect 31 0 12 0;
#X connect 32 0 31 1;
#X connect 32 0 34 0;
#X connect 33 0 32 1;
#X connect 36 0 31 0;
#X connect 37 0 36 0;
#X connect 37 1 41 0;
#X connect 37 2 32 0;
#X connect 38 0 36 1;
#X connect 39 0 40 0;
#X connect 40 0 42 0;
#X connect 41 0 38 0;
#X connect 42 0 38 1;
