#N canvas 116 143 611 572 12;
#X obj 102 262 osc~ 440;
#X msg 95 203 set \$1;
#X obj 95 133 hradio 15 1 0 8 empty empty empty 0 -8 0 10 -262144 -1
-1 1;
#X msg 110 178 symbol *;
#X obj 107 156 nbx 5 14 -1e+037 1e+037 0 0 empty empty empty 0 -8 0
10 -262144 -1 -1 0 256;
#X msg 47 129 clear;
#X obj 180 262 osc~ 600;
#X obj 102 240 nbx 5 14 -1e+037 1e+037 0 0 empty empty empty 0 -8 0
10 -262144 -1 -1 0 256;
#X obj 377 162 loadbang;
#X msg 377 186 \; pd dsp 1;
#X obj 73 39 loadbang;
#X msg 255 265 channel \$1;
#X obj 255 245 nbx 5 14 -1e+037 1e+037 0 0 empty empty empty 0 -8 0
10 -262144 -1 -1 0 256;
#X msg 74 67 disconnect \, connect localhost 9999;
#X obj 81 481 block~;
#X msg 81 452 set \$1;
#X msg 84 383 64;
#X msg 119 384 128;
#X msg 155 385 256;
#X msg 253 314 packetsize \$1;
#X obj 253 294 nbx 5 14 -1e+037 1e+037 0 0 empty empty empty 0 -8 0
10 -262144 -1 -1 0 256;
#X obj 92 292 aoo_send~ 1 2;
#X msg 185 201 format audio/pcm \$1;
#X msg 187 171 2;
#X msg 220 170 3;
#X msg 257 169 4;
#X msg 291 170 8;
#X msg 104 342 timefilter \$1;
#X obj 105 322 nbx 5 14 -1e+037 1e+037 0 0 empty empty empty 0 -8 0
10 -262144 -1 -1 0 256;
#X obj 82 424 t f;
#X connect 0 0 21 0;
#X connect 1 0 21 0;
#X connect 2 0 1 0;
#X connect 3 0 1 0;
#X connect 4 0 1 0;
#X connect 5 0 21 0;
#X connect 6 0 21 1;
#X connect 7 0 0 0;
#X connect 8 0 9 0;
#X connect 10 0 13 0;
#X connect 11 0 21 0;
#X connect 12 0 11 0;
#X connect 13 0 21 0;
#X connect 15 0 14 0;
#X connect 16 0 29 0;
#X connect 17 0 29 0;
#X connect 18 0 29 0;
#X connect 19 0 21 0;
#X connect 20 0 19 0;
#X connect 22 0 21 0;
#X connect 23 0 22 0;
#X connect 24 0 22 0;
#X connect 25 0 22 0;
#X connect 26 0 22 0;
#X connect 27 0 21 0;
#X connect 28 0 27 0;
#X connect 29 0 15 0;
