#N canvas 946 24 284 111 12;
#N canvas 757 44 868 670 sub 1;
#X obj 48 253 spigot;
#X obj 87 231 tgl 15 0 empty empty empty 17 7 0 10 -262144 -1 -1 0
1;
#X obj 48 284 print;
#X obj 131 354 nbx 5 14 -1e+037 1e+037 0 0 empty empty empty 0 -8 0
10 -262144 -1 -1 0 256;
#X obj 111 234 aoo_route 1 2;
#X obj 211 477 bng 15 250 50 0 empty empty empty 17 7 0 10 -262144
-1 -1;
#X obj 260 425 line~;
#X msg 260 391 \$1 50;
#X obj 108 499 *~;
#X obj 145 501 *~;
#X obj 261 200 vsl 15 128 0 1 0 0 empty empty empty 0 -9 0 10 -262144
-1 -1 0 1;
#X obj 260 360 t f f;
#X obj 306 410 - 100;
#X floatatom 306 434 5 0 0 0 - - -;
#X obj 306 386 rmstodb;
#X obj 260 336 pow 2;
#X msg 127 381 bufsize \$1;
#X obj 93 64 loadbang;
#X msg 93 88 \; pd dsp 1;
#X obj 83 197 t a a;
#X obj 110 315 spigot;
#X obj 147 293 tgl 15 0 empty empty empty 17 7 0 10 -262144 -1 -1 0
1;
#X obj 112 263 bng 15 250 50 0 empty empty empty 17 7 0 10 -262144
-1 -1;
#X obj 151 263 bng 15 250 50 0 empty empty empty 17 7 0 10 -262144
-1 -1;
#X obj 196 265 bng 15 250 50 0 empty empty empty 17 7 0 10 -262144
-1 -1;
#X obj 83 169 iemnet/udpreceive 9999;
#X obj 210 610 iemnet/udpsend;
#X obj 157 199 s \$0-from;
#X obj 109 438 aoo_unpack~ 1 2;
#X msg 223 549 disconnect \, connect localhost 9998;
#X obj 224 508 loadbang;
#X obj 108 531 outlet~;
#X obj 145 561 outlet~;
#X obj 25 637 block~;
#X msg 25 611 set \$1;
#X msg 26 581 64;
#X msg 60 582 128;
#X msg 96 583 256;
#X connect 0 0 2 0;
#X connect 1 0 0 1;
#X connect 3 0 16 0;
#X connect 4 0 20 0;
#X connect 4 0 22 0;
#X connect 4 1 23 0;
#X connect 4 2 24 0;
#X connect 6 0 8 1;
#X connect 6 0 9 1;
#X connect 7 0 6 0;
#X connect 8 0 31 0;
#X connect 9 0 32 0;
#X connect 10 0 15 0;
#X connect 11 0 7 0;
#X connect 11 1 14 0;
#X connect 12 0 13 0;
#X connect 14 0 12 0;
#X connect 15 0 11 0;
#X connect 16 0 28 0;
#X connect 17 0 18 0;
#X connect 19 0 0 0;
#X connect 19 1 4 0;
#X connect 20 0 28 0;
#X connect 21 0 20 1;
#X connect 25 0 19 0;
#X connect 25 1 27 0;
#X connect 28 0 8 0;
#X connect 28 1 9 0;
#X connect 28 2 5 0;
#X connect 28 2 26 0;
#X connect 29 0 26 0;
#X connect 30 0 29 0;
#X connect 34 0 33 0;
#X connect 35 0 34 0;
#X connect 36 0 34 0;
#X connect 37 0 34 0;
#X restore 34 79 pd sub;
#X obj 34 103 dac~;
#X connect 0 0 1 0;
#X connect 0 1 1 1;
