#N canvas 150 22 737 759 12;
#X obj 168 119 osc~ 440;
#X msg 88 135 set \$1;
#X obj 91 63 hradio 15 1 0 8 empty empty empty 0 -8 0 10 -262144 -1
-1 1;
#X msg 103 110 symbol *;
#X obj 100 88 nbx 5 14 -1e+037 1e+037 0 0 empty empty empty 0 -8 0
10 -262144 -1 -1 0 256;
#X msg 39 139 clear;
#X obj 236 119 osc~ 600;
#X obj 196 84 nbx 5 14 -1e+037 1e+037 0 0 empty empty empty 0 -8 0
10 -262144 -1 -1 0 256;
#X obj 316 51 loadbang;
#X msg 316 75 \; pd dsp 1;
#X obj 177 495 loadbang;
#X obj 100 166 r \$0-back;
#X obj 142 496 tgl 15 0 empty empty empty 17 7 0 10 -262144 -1 -1 0
1;
#X msg 251 173 channel \$1;
#X obj 251 153 nbx 5 14 -1e+037 1e+037 0 0 empty empty empty 0 -8 0
10 -262144 -1 -1 0 256;
#X obj 177 578 s \$0-back;
#X obj 195 553 bng 15 250 50 0 empty empty empty 17 7 0 10 -262144
-1 -1;
#X msg 177 521 disconnect \, connect localhost 9999;
#X obj 66 727 block~;
#X msg 66 698 set \$1;
#X msg 69 617 64;
#X msg 104 618 128;
#X msg 140 619 256;
#X obj 88 200 aoo_pack~ 1 2;
#X obj 67 658 t f f;
#X obj 127 689 s \$0-blocksize;
#X msg 249 222 packetsize \$1;
#X obj 249 202 nbx 5 14 -1e+037 1e+037 0 0 empty empty empty 0 -8 0
10 -262144 -1 -1 0 256;
#X obj 89 457 pipelist;
#X obj 142 427 random;
#X obj 181 402 nbx 5 14 0 100 0 0 empty empty empty 0 -8 0 10 -262144
-1 -1 0 256;
#X floatatom 159 455 5 0 0 0 - - -;
#X text 195 426 simulate jitter + reordering;
#X obj 87 349 spigot;
#X obj 87 236 t a b b;
#X obj 111 308 >= 0;
#X obj 204 283 hsl 128 15 0 100 0 0 empty empty empty -2 -8 0 10 -262144
-1 -1 0 1;
#X floatatom 201 306 5 0 0 0 - - -;
#X obj 110 282 random 1000;
#X obj 151 307 * 10;
#X text 201 258 simulate packet loss (%);
#X msg 375 225 format opus 512;
#X obj 89 550 netsend -u -b;
#X obj 89 518 spigot 1;
#X msg 324 130 format pcm 64 44100 2;
#X msg 364 194 format pcm;
#X obj 419 295 tgl 15 0 empty empty empty 17 7 0 10 -262144 -1 -1 1
1;
#X obj 419 270 loadbang;
#X obj 441 388 random;
#X obj 479 370 nbx 5 14 0 500 0 0 empty empty empty 0 -8 0 10 -262144
-1 -1 0 256;
#X obj 418 413 del 0;
#X msg 418 438 1;
#X msg 384 348 0;
#X obj 418 348 t b b b;
#X obj 87 387 spigot 1;
#X text 244 348 simulate drop outs;
#X text 538 370 max. dropout time;
#X obj 384 374 tgl 15 0 empty empty empty 17 7 0 10 -262144 -1 -1 1
1;
#X obj 486 295 nbx 5 14 0 5000 0 0 empty empty empty 0 -8 0 10 -262144
-1 -1 0 256;
#X obj 419 316 metro 1000;
#X msg 341 159 format pcm 256 44100 2;
#X obj 175 229 print;
#X connect 0 0 23 0;
#X connect 1 0 23 0;
#X connect 2 0 1 0;
#X connect 3 0 1 0;
#X connect 4 0 1 0;
#X connect 5 0 23 0;
#X connect 6 0 23 1;
#X connect 7 0 0 0;
#X connect 8 0 9 0;
#X connect 10 0 17 0;
#X connect 11 0 23 0;
#X connect 12 0 43 1;
#X connect 13 0 23 0;
#X connect 14 0 13 0;
#X connect 17 0 42 0;
#X connect 19 0 18 0;
#X connect 20 0 24 0;
#X connect 21 0 24 0;
#X connect 22 0 24 0;
#X connect 23 0 34 0;
#X connect 23 1 61 0;
#X connect 24 0 19 0;
#X connect 24 1 25 0;
#X connect 26 0 23 0;
#X connect 27 0 26 0;
#X connect 28 0 43 0;
#X connect 29 0 28 1;
#X connect 29 0 31 0;
#X connect 30 0 29 1;
#X connect 33 0 54 0;
#X connect 34 0 33 0;
#X connect 34 1 38 0;
#X connect 34 2 29 0;
#X connect 35 0 33 1;
#X connect 36 0 37 0;
#X connect 37 0 39 0;
#X connect 38 0 35 0;
#X connect 39 0 35 1;
#X connect 41 0 23 0;
#X connect 42 1 15 0;
#X connect 42 1 16 0;
#X connect 43 0 42 0;
#X connect 44 0 23 0;
#X connect 45 0 23 0;
#X connect 46 0 59 0;
#X connect 47 0 46 0;
#X connect 48 0 50 1;
#X connect 49 0 48 1;
#X connect 50 0 51 0;
#X connect 51 0 57 0;
#X connect 52 0 57 0;
#X connect 53 0 50 0;
#X connect 53 1 48 0;
#X connect 53 2 52 0;
#X connect 54 0 28 0;
#X connect 57 0 54 1;
#X connect 58 0 59 1;
#X connect 59 0 53 0;
#X connect 60 0 23 0;
