#N canvas 946 24 284 138 12;
#N canvas 873 306 499 478 sub 1;
#X obj 127 187 nbx 5 14 -1e+037 1e+037 0 0 empty empty empty 0 -8 0
10 -262144 -1 -1 0 256;
#X obj 273 248 line~;
#X msg 273 214 \$1 50;
#X obj 65 282 *~;
#X obj 209 285 *~;
#X obj 274 23 vsl 15 128 0 1 0 0 empty empty empty 0 -9 0 10 -262144
-1 -1 0 1;
#X obj 273 183 t f f;
#X obj 319 233 - 100;
#X floatatom 319 257 5 0 0 0 - - -;
#X obj 319 209 rmstodb;
#X obj 273 159 pow 2;
#X msg 123 214 bufsize \$1;
#X obj 43 89 loadbang;
#X msg 43 113 \; pd dsp 1;
#X obj 65 309 outlet~;
#X obj 208 311 outlet~;
#X obj 68 416 block~;
#X msg 68 390 set \$1;
#X msg 69 360 64;
#X msg 103 361 128;
#X msg 139 362 256;
#X msg 41 213 listen \$1;
#X msg 42 186 9999;
#X msg 80 187 0;
#X obj 26 165 nbx 5 14 -1e+037 1e+037 0 0 empty empty empty 0 -8 0
10 -262144 -1 -1 0 256;
#X obj 65 250 aoo_receive~ 1 2 9999;
#X connect 0 0 11 0;
#X connect 1 0 3 1;
#X connect 1 0 4 1;
#X connect 2 0 1 0;
#X connect 3 0 14 0;
#X connect 4 0 15 0;
#X connect 5 0 10 0;
#X connect 6 0 2 0;
#X connect 6 1 9 0;
#X connect 7 0 8 0;
#X connect 9 0 7 0;
#X connect 10 0 6 0;
#X connect 11 0 25 0;
#X connect 12 0 13 0;
#X connect 17 0 16 0;
#X connect 18 0 17 0;
#X connect 19 0 17 0;
#X connect 20 0 17 0;
#X connect 21 0 25 0;
#X connect 22 0 21 0;
#X connect 23 0 21 0;
#X connect 24 0 21 0;
#X connect 25 0 3 0;
#X connect 25 1 4 0;
#X restore 34 46 pd sub;
#X obj 34 70 dac~;
#X connect 0 0 1 0;
#X connect 0 1 1 1;
